<?xml version="1.0" standalone="no"?>
<!DOCTYPE svg PUBLIC "-//W3C//DTD SVG 20010904//EN"
 "http://www.w3.org/TR/2001/REC-SVG-20010904/DTD/svg10.dtd">
<svg version="1.0" xmlns="http://www.w3.org/2000/svg"
 width="300.000000pt" height="300.000000pt" viewBox="0 0 300.000000 300.000000"
 preserveAspectRatio="xMidYMid meet">
<metadata>
Created by potrace 1.11, written by Peter Selinger 2001-2013
</metadata>
<g transform="translate(0.000000,300.000000) scale(0.100000,-0.100000)"
fill="#000000" stroke="none">
<path d="M1280 2416 c-55 -11 -120 -48 -120 -67 0 -6 11 -29 24 -52 40 -69 38
-87 -11 -106 -22 -9 -50 -25 -62 -35 -20 -19 -29 -46 -13 -46 4 0 7 -15 6 -32
-1 -18 2 -42 6 -52 5 -14 -7 -33 -48 -75 -47 -49 -130 -172 -136 -205 -2 -6
-9 -24 -15 -41 -73 -175 -71 -465 4 -616 40 -79 99 -143 159 -175 51 -26 56
-32 58 -64 1 -19 3 -48 4 -65 3 -46 6 -159 4 -170 -3 -23 2 -193 6 -225 7 -41
41 -87 71 -96 13 -3 32 -21 44 -40 11 -19 25 -34 30 -34 15 0 -18 -124 -44
-164 -38 -60 -57 -56 289 -56 l316 0 -5 27 c-3 16 -10 46 -15 69 -11 49 0 81
31 95 34 15 62 -2 78 -46 7 -19 16 -35 19 -35 6 0 12 -36 14 -82 1 -28 1 -28
77 -28 85 0 85 0 66 80 -11 47 -66 173 -78 178 -8 3 12 62 21 62 3 0 5 31 5
69 -2 82 -24 121 -84 144 -46 19 -81 14 -136 -16 -35 -20 -101 -27 -155 -18
-6 1 -9 32 -15 176 -2 61 -5 112 -6 115 -1 3 -2 16 -3 30 -2 48 26 81 104 123
41 22 77 42 80 46 3 3 23 19 44 35 97 72 158 156 175 237 6 29 14 65 17 79 13
55 11 298 -2 375 -16 97 -34 167 -45 180 -5 5 -9 15 -9 23 0 8 -13 34 -30 59
-16 24 -30 46 -30 49 0 9 -54 56 -90 78 -19 13 -57 28 -85 36 -27 7 -54 15
-59 18 -5 3 -27 7 -50 9 -28 2 -49 12 -69 33 -25 26 -37 30 -82 30 l-52 0 2
53 c2 61 -16 112 -45 127 -30 16 -97 19 -160 6z"/>
</g>
</svg>
